<?xml version="1.0" encoding="UTF-8"?>
<svg width="22px" height="30px" viewBox="0 0 22 30" version="1.1" xmlns="http://www.w3.org/2000/svg" xmlns:xlink="http://www.w3.org/1999/xlink">
    <!-- Generator: Sketch 51.1 (57501) - http://www.bohemiancoding.com/sketch -->
    <title>App Icon / Cert network</title>
    <desc>Created with Sketch.</desc>
    <defs>
        <path d="M21.1528281,10.2656927 C21.3130729,10.4722865 21.3130729,10.761151 21.1528854,10.9677448 L19.5724948,13.006125 L19.9224896,15.5611615 C19.9580104,15.8202917 19.8135208,16.0705417 19.5714062,16.1693698 L17.1834896,17.1440156 L16.208901,19.531875 C16.1101302,19.7740469 15.8598229,19.9185937 15.6006927,19.8829583 L14.6666667,19.7549687 L14.6666667,28.7604167 C14.6666667,28.9921615 14.5270469,29.2010469 14.3130052,29.2897344 C14.0989062,29.3783073 13.8525521,29.3294375 13.6886406,29.165526 L10.65625,26.1331354 L7.62385937,29.165526 C7.4600625,29.3293802 7.21365104,29.3783073 6.99949479,29.2897344 C6.78545312,29.2010469 6.64583333,28.9921615 6.64583333,28.7604167 L6.64583333,19.7549687 L5.71186458,19.8830729 C5.45296354,19.9187656 5.20254167,19.7741615 5.10365625,19.5319896 L4.12906771,17.1441302 L1.74115104,16.1694844 C1.49903646,16.0706562 1.35454687,15.8204062 1.39006771,15.561276 L1.7400625,13.0062396 L0.159671875,10.9678594 C-0.000515625,10.7612083 -0.000515625,10.4722865 0.159671875,10.26575 L1.74000521,8.22794271 L1.39001042,5.67296354 C1.35448958,5.41389062 1.49892187,5.16369792 1.74097917,5.0648125 L4.12901042,4.08959375 L5.10365625,1.70225 C5.20248437,1.46007812 5.45284896,1.31576042 5.71180729,1.35116667 L8.26678646,1.70116146 L10.3051094,0.120255208 C10.5118177,-0.040046875 10.8007396,-0.040046875 11.0073906,0.120255208 L13.0457135,1.70110417 L15.6006927,1.35110937 C15.8597656,1.31547396 16.1100156,1.46007812 16.2088437,1.70219271 L17.1834896,4.08953646 L19.5715208,5.06475521 C19.8135781,5.16358333 19.9580104,5.41383333 19.9224896,5.67290625 L19.5724948,8.22788542 L21.1528281,10.2656927 Z M13.5208333,27.3772812 L13.5208333,19.5979896 L13.0457135,19.5329062 L11.007276,21.1132969 C10.9039792,21.1933906 10.7801146,21.2334375 10.65625,21.2334375 C10.5323854,21.2334375 10.4085208,21.1933906 10.305224,21.1132969 L8.26678646,19.5329062 L7.79166667,19.5979896 L7.79166667,27.3772812 L10.2510833,24.9178073 C10.4749219,24.6940833 10.8375781,24.6940833 11.0613594,24.9178073 L13.5208333,27.3772812 Z M5.29260417,7.31041667 C5.41921875,7.41646354 5.5,7.57453125 5.5,7.75213542 C5.5,8.06895833 5.24333333,8.32505208 4.92708333,8.32505208 C4.88067708,8.32505208 4.83541667,8.31932292 4.791875,8.3084375 C4.5409375,8.24828125 4.35416667,8.02255208 4.35416667,7.75213542 C4.35416667,7.43588542 4.61083333,7.17921875 4.92708333,7.17921875 C5.06572917,7.17921875 5.19348958,7.22848958 5.29260417,7.31041667 Z M14.0553646,9.79853646 C14.1227969,10.0059323 14.0665938,10.2336094 13.910474,10.3858906 L12.6989271,11.5673021 L12.9849271,13.2350625 C13.0217656,13.4499635 12.9334219,13.6672135 12.7569635,13.795375 C12.5793594,13.9245104 12.3453229,13.93975 12.153625,13.838974 L10.6561927,13.0515573 L9.15824479,13.838974 C8.96528646,13.9404375 8.73130729,13.9235937 8.55490625,13.795375 C8.37844792,13.6672135 8.29010417,13.4499635 8.32694271,13.2350625 L8.61294271,11.5673021 L7.40139583,10.3858906 C7.24533333,10.2336667 7.18913021,10.0059896 7.2565625,9.79859375 C7.3239375,9.59119792 7.50320313,9.4400625 7.71902083,9.40872396 L9.39354167,9.16552083 L10.1424583,7.64809375 C10.2389948,7.45255729 10.4381406,7.32875 10.6561927,7.32875 C10.65625,7.32875 10.65625,7.32875 10.65625,7.32875 C10.8743594,7.32875 11.0735052,7.45261458 11.1700417,7.64820833 L11.9184427,9.16552083 L13.5929063,9.40866667 C13.8086667,9.44000521 13.9879323,9.59114062 14.0553646,9.79853646 Z M11.6834323,10.9570885 L12.2796094,10.3758073 L11.4556406,10.2561823 C11.2689844,10.2290833 11.107651,10.1118646 11.0241771,9.94268229 L10.6561354,9.19645833 L10.2876927,9.94279688 C10.204276,10.1118646 10.0429427,10.2290833 9.85634375,10.2561823 L9.03243229,10.3758073 L9.62855208,10.9570885 C9.76347396,11.0887448 9.82511979,11.2783229 9.79326563,11.4641198 L9.65255729,12.284651 L10.3896719,11.8971302 C10.5566771,11.8093594 10.7560521,11.8093594 10.9229427,11.8971302 L11.6593698,12.2844219 L11.5187188,11.4641198 C11.4868646,11.2782656 11.5485104,11.0886875 11.6834323,10.9570885 Z M10.65625,3.74177604 C14.447125,3.74177604 17.53125,6.82584375 17.53125,10.6167188 C17.53125,14.382099 14.4752552,17.4917188 10.65625,17.4917188 C6.7601875,17.4917188 3.59728646,14.2314792 3.78990104,10.2687292 C3.79620312,10.151224 3.80502604,10.0361823 3.81602604,9.92371875 C3.84690625,9.60884375 4.12608854,9.37824479 4.44222396,9.40952604 C4.75709896,9.44040625 4.98735417,9.72079167 4.95641667,10.0356667 C4.94702083,10.1315729 4.93957292,10.2297135 4.93424479,10.3274531 C4.77382812,13.6355313 7.41589062,16.3459427 10.65625,16.3459427 C13.8309531,16.3459427 16.3854167,13.765526 16.3854167,10.616776 C16.3854167,7.45771354 13.8153698,4.88760938 10.65625,4.88760938 C9.28205208,4.88760938 7.91770833,5.36966146 6.77158854,6.40939063 C6.53766667,6.62245833 6.17535417,6.60561458 5.96222917,6.37169271 C5.74916146,6.13782813 5.76600521,5.77545833 5.99992708,5.56239063 C6.03716667,5.53976042 7.78009375,3.74177604 10.65625,3.74177604 Z M18.5193594,12.4943958 L19.975026,10.6168906 L18.5194167,8.73984375 C18.425,8.61809896 18.3836354,8.46358333 18.4045469,8.31095833 L18.7269271,5.95758854 L16.5273854,5.05936979 C16.3848437,5.00116146 16.2718073,4.88806771 16.213599,4.74552604 L15.3158958,2.54672917 L12.9626406,2.86910937 C12.8099583,2.88996354 12.6554427,2.84859896 12.5337552,2.75423958 L10.65625,1.29805729 L8.77874479,2.75418229 C8.657,2.84854167 8.50277083,2.88984896 8.34985937,2.86905208 L5.99660417,2.54667187 L5.09890104,4.74546875 C5.04069271,4.88801042 4.92759896,5.00110417 4.78511458,5.0593125 L2.58557292,5.95753125 L2.90795312,8.31090104 C2.92886458,8.46352604 2.88744271,8.61804167 2.79308333,8.73978646 L1.33753125,10.616776 L2.79319792,12.4942812 C2.88755729,12.616026 2.92892187,12.7705417 2.90801042,12.9231094 L2.58563021,15.2763646 L4.78505729,16.1740677 C4.92759896,16.2322187 5.04075,16.3453698 5.09895833,16.4879687 L5.99660417,18.6873385 L8.34985937,18.3649583 C8.50403125,18.3440469 8.65791667,18.3862135 8.77863021,18.4798281 L10.65625,19.9356094 L12.5339271,18.4798854 C12.6555573,18.385526 12.8097292,18.3442187 12.9626979,18.3650156 L14.0223646,18.5101927 C14.129099,18.496901 14.2281562,18.5127135 14.317474,18.5506406 L15.3159531,18.6874531 L16.213599,16.4880833 C16.27175,16.3455417 16.3849583,16.2323906 16.5275,16.1741823 L18.7269271,15.2764792 L18.4045469,12.923224 C18.3836354,12.7706562 18.4250573,12.6161406 18.5193594,12.4943958 Z" id="path-1"></path>
    </defs>
    <g id="Application-Symbols" stroke="none" stroke-width="1" fill="none" fill-rule="evenodd">
        <g id="Cert-Card" transform="translate(-18.000000, -17.000000)">
            <g id="App-Icon-/-Cert-network" transform="translate(13.000000, 16.000000)">
                <g id="↳-Icon-Color" transform="translate(5.333333, 1.333333)">
                    <mask id="mask-2" fill="white">
                        <use xlink:href="#path-1"></use>
                    </mask>
                    <g id="Mask" fill-rule="nonzero"></g>
                    <g id="✱-/-Color-/-Icons-/-Selected-/-On-Primary-/-Active-" mask="url(#mask-2)" fill="#FFFFFF">
                        <g transform="translate(-5.333333, -1.333333)" id="Rectangle-3">
                            <rect x="0" y="0" width="32" height="32"></rect>
                        </g>
                    </g>
                </g>
            </g>
        </g>
    </g>
</svg>